<svg xmlns="http://www.w3.org/2000/svg" xmlns:xlink="http://www.w3.org/1999/xlink" width="500" zoomAndPan="magnify" viewBox="0 0 375 374.999991" height="500" preserveAspectRatio="xMidYMid meet" version="1.0"><defs><clipPath id="dc5439fca2"><path d="M 52.941406 125 L 171 125 L 171 244 L 52.941406 244 Z M 52.941406 125 " clip-rule="nonzero"/></clipPath></defs><path fill="#000000" d="M 121.558594 196.085938 C 118.636719 198.582031 113.679688 197.578125 110.480469 193.847656 C 107.285156 190.109375 107.0625 185.054688 109.984375 182.554688 L 267.671875 47.605469 C 270.59375 45.105469 275.558594 46.105469 278.753906 49.847656 C 281.953125 53.582031 282.171875 58.636719 279.25 61.132812 L 121.558594 196.085938 " fill-opacity="1" fill-rule="nonzero"/><path fill="#497cd5" d="M 316.542969 61.347656 C 316.542969 91.335938 292.234375 115.648438 262.242188 115.648438 C 232.257812 115.648438 207.941406 91.335938 207.941406 61.347656 C 207.941406 31.359375 232.257812 7.042969 262.242188 7.042969 C 292.234375 7.042969 316.542969 31.359375 316.542969 61.347656 " fill-opacity="1" fill-rule="nonzero"/><path fill="#000000" d="M 98.554688 202.46875 C 95.445312 200.207031 95.269531 195.15625 98.160156 191.179688 C 101.050781 187.199219 105.917969 185.816406 109.027344 188.074219 L 276.851562 310.191406 C 279.964844 312.457031 280.136719 317.515625 277.246094 321.484375 C 274.355469 325.460938 269.484375 326.851562 266.378906 324.585938 L 98.554688 202.46875 " fill-opacity="1" fill-rule="nonzero"/><path fill="#497cd5" d="M 274.816406 360.917969 C 245.644531 367.863281 216.363281 349.855469 209.410156 320.679688 C 202.457031 291.511719 220.472656 262.226562 249.640625 255.269531 C 278.816406 248.316406 308.097656 266.335938 315.050781 295.503906 C 322 324.679688 303.992188 353.964844 274.816406 360.917969 " fill-opacity="1" fill-rule="nonzero"/><g clip-path="url(#dc5439fca2)"><path fill="#497cd5" d="M 170.40625 184.726562 C 170.40625 217.175781 144.101562 243.476562 111.652344 243.476562 C 79.207031 243.476562 52.902344 217.175781 52.902344 184.726562 C 52.902344 152.277344 79.207031 125.976562 111.652344 125.976562 C 144.101562 125.976562 170.40625 152.277344 170.40625 184.726562 " fill-opacity="1" fill-rule="nonzero"/></g></svg>